<?xml version="1.0" encoding="iso-8859-1"?>
<!-- Uploaded to: SVG Repo, www.svgrepo.com, Generator: SVG Repo Mixer Tools -->
<!DOCTYPE svg PUBLIC "-//W3C//DTD SVG 1.1//EN" "http://www.w3.org/Graphics/SVG/1.1/DTD/svg11.dtd">
<svg fill="#000000" version="1.1" id="Capa_1" xmlns="http://www.w3.org/2000/svg" xmlns:xlink="http://www.w3.org/1999/xlink" 
	 width="800px" height="800px" viewBox="0 0 543.684 543.684"
	 xml:space="preserve">
<g>
	<g>
		<path d="M527.657,106.697c-2.681,0.783-5.361,1.512-8.041,2.191c-16.384,4.137-17.89-1.322-6.028-13.366
			c5.312-5.397,10.006-11.267,14.082-17.607c9.137-14.217,1.212-20.417-14.333-13.776c-5.545,2.369-11.182,4.517-16.897,6.432
			c-16.017,5.379-38.746-2.735-53.018-11.787c-18.018-11.426-38.495-17.136-61.438-17.136c-32.137,0-59.529,11.334-82.192,33.984
			c-22.656,22.662-33.99,50.062-33.99,82.191c0,4.394,0.251,8.855,0.747,13.378c0.814,7.362-11.585,12.699-28.317,10.336
			c-36.194-5.11-70.582-16.077-103.171-32.889c-32.32-16.671-60.845-37.65-85.57-62.938C37.672,73.624,21.687,74.665,17.274,90.98
			c-2.644,9.78-3.959,19.951-3.959,30.515c0,19.908,4.675,38.372,14.027,55.392c4.651,8.47,10.098,16.138,16.353,22.999
			c10.521,11.549,8.911,18.25-5.734,14.144c-14.639-4.106-25.367-10.202-25.367-9.804s0,0.722,0,0.722
			c0,28.048,8.807,52.693,26.432,73.911c10.857,13.072,23.47,23.17,37.834,30.282c15.147,7.503,22.203,11.688,13.733,12.784
			c-5.11,0.661-10.251,0.991-15.422,0.991c-3.5,0-7.172-0.159-11.003-0.483c-6.059-0.514-7.148,12.111,2.038,26.298
			c7.301,11.273,16.646,21.193,28.03,29.762c11.579,8.721,24.058,14.981,37.417,18.794c16.255,4.633,19.517,13.073,5.024,21.763
			c-35.863,21.519-75.551,32.277-119.058,32.277c-4.902,0-9.578-0.11-14.045-0.324c-7.754-0.373-2.552,6.456,12.417,14.296
			c46.775,24.499,97.43,36.738,151.972,36.738c41.237,0,79.964-6.529,116.176-19.596c36.199-13.066,67.136-30.576,92.791-52.516
			c25.655-21.94,47.779-47.173,66.365-75.711c18.581-28.537,32.424-58.33,41.543-89.376c9.106-31.053,13.666-62.167,13.666-93.342
			c0-2.809-0.024-5.331-0.067-7.552c-0.086-4.174,10.955-15.472,23.28-27.032c5.563-5.22,10.869-10.698,15.937-16.444
			C548.833,107.78,543.882,101.966,527.657,106.697z"/>
	</g>
</g>
</svg>